<svg id="master-artboard" version="1.1" xmlns="http://www.w3.org/2000/svg" x="0" y="0" width="645" height="1155"><path id="ee-background" fill="#fff" fill-opacity="0" pointer-events="none" d="M0 0h645v1155H0z"/><linearGradient id="SVGID_1_" gradientUnits="userSpaceOnUse" x1="-2e-8" y1="2e-8" x2="1400" y2="1400"><stop offset="0" stop-color="#5289ff"/><stop offset="1" stop-color="#63c6ff"/></linearGradient><linearGradient id="SVGID_2_" gradientUnits="userSpaceOnUse" x1="272" y1="269" x2="1175" y2="1172"><stop offset="0" stop-color="#3e68ea"/><stop offset="1" stop-color="#4ca9e7"/></linearGradient><linearGradient id="SVGID_3_" gradientUnits="userSpaceOnUse" x1="699.5" y1="1278" x2="699.5" y2="121"><stop offset="0" stop-color="#4fd0ff"/><stop offset="1" stop-color="#145cd9"/></linearGradient><path d="M374 121h651v1157H374V121z" fill-rule="evenodd" clip-rule="evenodd" fill="url(#SVGID_3_)" transform="translate(-378.2946167 -121.550354)"/><g fill-rule="evenodd" clip-rule="evenodd"><path fill="#8FF9FF" d="M645.1 613.1c-.9 0-1.7-.7-1.7-1.6 0-.9.8-1.7 1.7-1.7.9 0 1.7.7 1.7 1.7 0 .8-.8 1.6-1.7 1.6zm-201.2-74.7c-.4 0-.8-.3-.8-.7 0-.4.3-.7.8-.7.4 0 .7.3.7.7.1.4-.3.7-.7.7zm553.4 184.5c-.4 0-.7-.3-.7-.7 0-.4.3-.7.7-.7s.7.3.7.7c0 .4-.3.7-.7.7zm-94.8-148.5c-.4 0-.7-.3-.7-.7 0-.4.3-.7.7-.7.4 0 .7.3.7.7 0 .3-.4.7-.7.7zm-73.4-13c-.4 0-.7-.3-.7-.7 0-.4.3-.7.7-.7.4 0 .7.3.7.7 0 .4-.3.7-.7.7zM433.2 732.9c-.4 0-.8-.3-.8-.7 0-.4.3-.7.8-.7.4 0 .7.3.7.7 0 .4-.3.7-.7.7zm-11.3-144.2c-.4 0-.7-.3-.7-.8 0-.4.3-.7.7-.7.4 0 .7.3.7.7 0 .5-.3.8-.7.8zm124.8 98.5c-.6 0-1.1-.5-1.1-1.1 0-.6.5-1.1 1.1-1.1.6 0 1.1.5 1.1 1.1 0 .7-.5 1.1-1.1 1.1zM943 629.5c-.6 0-1.1-.5-1.1-1.1s.5-1.1 1.1-1.1c.6 0 1.1.5 1.1 1.1s-.5 1.1-1.1 1.1zm-395.2-27.1c-.6 0-1.1-.5-1.1-1.1 0-.6.5-1.1 1.1-1.1.6 0 1.1.5 1.1 1.1 0 .6-.5 1.1-1.1 1.1zm345.1 65.7c-.6 0-1.1-.5-1.1-1.1 0-.6.5-1.1 1.1-1.1.6 0 1.1.5 1.1 1.1 0 .6-.5 1.1-1.1 1.1zM645 501.4c-.9 0-1.7-.8-1.7-1.7 0-.9.7-1.7 1.7-1.7.9 0 1.6.8 1.6 1.7 0 1-.7 1.7-1.6 1.7zm296.8 31.1c-.9 0-1.6-.8-1.6-1.7 0-.9.7-1.7 1.6-1.7s1.7.8 1.7 1.7c0 1-.8 1.7-1.7 1.7z" transform="translate(-378.2946167 -121.550354)"/><path fill="#2581E3" d="M1025 661.9l-205.9.7 171-17-51-2.2 85.9-8.9v27.4zm-651 52.6l219.5-4.4-137.6 9.6 417.5-3.7L374 746.4v-31.9zm96.9-99.5h101.5l91.9-9H540.5l-69.6 9z" transform="translate(-378.2946167 -121.550354)"/></g><g transform="translate(-378.2946167 -121.550354)"><linearGradient id="SVGID_4_" gradientUnits="userSpaceOnUse" x1="699.5" y1="606.7237" x2="699.5" y2="1278"><stop offset="0" stop-color="#1e5cc6"/><stop offset="1" stop-color="#3b83ff"/></linearGradient><path d="M374 843l83.8999939-51.09997559 8.8000183 3.69995118L572.40002442 699.5l35.89996338 5.7000122 43-34.7000122 54.90002442-63.7999878 59.5 59.20001221 20.5-14L833.5 723l81.7999878 27.2000122 55.29998779 62.5L1025 849v429H374z" fill-rule="evenodd" clip-rule="evenodd" fill="url(#SVGID_4_)"/><linearGradient id="SVGID_5_" gradientUnits="userSpaceOnUse" x1="679.2061" y1="606.7237" x2="679.2061" y2="1003.0141"><stop offset="0" stop-color="#8ff9ff"/><stop offset="1" stop-color="#8ff9ff" stop-opacity="0"/></linearGradient><path fill-rule="evenodd" clip-rule="evenodd" fill="url(#SVGID_5_)" d="M384.1 837.3l74.2-45.4 9.6 15.6 14.8 2.2 20.7 10.4 57-13.7 1.1 23 13.3 8.9-25.5 24.7-20-.7-62.2 29.3 14.8-15.9 11.1-20-33 1.1-10-4.8-40.3 2.6 30-24.8-41.3 9.7-14.3-2.2zM821 788.6l8.9-6.7 11.9-5.2-3 9.6-17.8 2.3zm-91.1 159.2l25.2-27.4 27.4-3.7-17.8 14.1-34.8 17zm17.8-72.8l50.4-38H827l45.9-39 7.4 18.6 51.8 25.3v16.3l14.2 8.9 28.2 17.8-14.8 10.4-37.8 22.2-12.6 3.7 14.1-37.8-48.1 11.9-46.7-5.9-22.2 5.2 22.2-23-24.6 11.1-37.1 2.9-45.9 23 46.6-35.7-19.9 2.1zm5.9-136.8l17.4-7.8 17-6.3-5.2 14.1-24 6.3-5.2-6.3zm-24.4-41.9l12.9-14.8 23.6-15.7 20.6-13.8.3 18.7 11.5 17.3-25.2 14h-16.7l-45.5 12.7 18.5-18.4zm-120.8 8.9l35.2-.3 18.5-8.5 20.4-5.5-6.4 9.2 39.9-23.3v-9.6l-8.4-10 4.5-20.4-5.9-30-54.8 63.7-43 34.7zm-33.7 90l8.9-5.2 26.3-7.4-11.5 8.5-23.7 4.1zm66.3-37.7l12.2-16.3 32.6-12.2 9.6 14.4 24.8 1.1 27 9.3-54.4 41.1-35.2 8.2-25.5 13.7L651 776l-24.1 2.6 14.1-21.1zm-68.6-58l-105.5 96.1 23.4.7 12.2 2.9 28.1-8.5L565 760l14.1-2.2-7 8.5 46.6-25.2-25.5-13.3-20.8-28.3zM503.2 1003l5.6-10.7 8.5-4.8-14.1 15.5zM390.1 868.6l3.5-5.6 8.2-.6-11.7 6.2zm37.2 16.7l3.5-5.2 10.9-4.4 11.9-8.2-7.6 10.7-16.3 9.2-9.2 1.9 6.8-4zm-19.6 37.2l-8.3 3.7-3.7 5.2 10.5-5 1.5-3.9zm86.1-35.4l-33 17.7-8.3 13.7 10.7-9.8 13.3-6.8h14.6l2.7-14.8zm160-44.4l4.8-7 5.9-2.6-2.2 5.5-8.5 4.1zM595.6 873l8.1-15.6 33.4-15.5-13.3 15.5-28.2 15.6zM434.1 984.9l54.8-24.5 51.1-16.3 60-40.8 35.6-13.3-18.5 25.2-21.5 17.8-32.6 49.6-20-17.8-29.6.7-79.3 19.4z"/></g><g transform="translate(-378.2946167 -121.550354)"><linearGradient id="SVGID_6_" gradientUnits="userSpaceOnUse" x1="699.5" y1="1020.2669" x2="699.5" y2="1278"><stop offset="0" stop-color="#1e5cc6"/><stop offset="1" stop-color="#3b83ff"/></linearGradient><path fill-rule="evenodd" clip-rule="evenodd" fill="url(#SVGID_6_)" d="M374 1160.4l1.3-.6c-.3-2-.3-3.8-1.3-5.4v-6.8c3 1.9 4.7 5.1 6.9 9.8l1.3-.5c-.9-7.6-3-13.4-5.8-18.5 3.9 3.9 7.3 9.4 10 16.7 15.4-6.8 31-13.3 46.8-19.4-7.7-5.2-15.2-8.4-22.4-7.8 8.6-4.5 18.6-1.8 29.4 5.1l.3-.1c-5.6-9.1-11.6-15.7-18.3-18.6 6.8-2.4 16 4.2 26.4 15.2-10.1-23.8-22.4-40.8-36.6-51 14.7 7.2 28 18.4 37 41.7-1-17-4.8-29.3-13-33.6 7.1-.6 14.5 5.2 22.3 24.1-.9-14.6-4.6-25.4-9.6-34.5 3.7 3.6 7 8.2 10 13.8 10.3 5.6 19.8 13.4 27.4 26.4l4.5-1.5c-2-9-5.5-15.4-11-18.3 5.9-.5 12.1 3.4 18.5 15.9.9-.3 1.9-.6 2.8-.9-1.6-10.1-4.7-18.2-8.6-25.3 3.9 3.8 7.2 8.5 10.3 14.4 5.7-2.9 12.4-.8 19.5 3.9-3.6-6.1-7.6-10.5-12.1-12.5 4.4-1.6 10.4 2.7 17.1 9.9-6.6-15.5-14.5-26.5-23.8-33.1 9.6 4.7 18.2 12 24 27.1-.7-11-3.1-19-8.4-21.8 4.6-.4 9.4 3.4 14.5 15.7-.6-9.5-3-16.5-6.2-22.4 8.7 10.3 8.8 23.8 22.6 29.3-2.8-3.7-5.8-6.4-9-7.8 6.9-2.4 12.4 2.2 15.4 6-6.2-13.5-13.6-23.2-22.1-29.2 9.6 4.7 18.2 12 24 27.1-.7-11-3.1-19-8.4-21.8 4.6-.4 9.4 3.4 14.5 15.7-.6-9.5-3-16.5-6.2-22.4 5.6 5.5 9.9 14.4 13 26.7 3.5-.9 4.5-6.8 4-11.7 19 7.1 45.8-.6 65.8-4.8-4-5.5-7.3-9.8-12.9-13.2 8.9 2.8 15.9 7.5 20.9 11.6-.3-4.4-4.3-8.4-10-9.7 7.8-.7 15.1 5 17.5 8.2-.7-5.3-4.5-10.6-6.3-13.9 2.8 2.8 7.1 8.8 9.3 13.3 2-.4 3.1-4.5 2.3-7.3 28.7 3.4 93.5-9.4 138.8-14.3-2.1-2.3-7.8-8-14.8-9 6.2-2.2 15.8 4.2 20.3 8.9-6-12.5-13.1-21.7-21.2-27.4 9.6 4.7 18.2 12 24 27.1-.7-11-3.1-19-8.4-21.8 4.6-.4 9.4 3.4 14.5 15.7-.6-9.5-3-16.5-6.2-22.4 5.6 5.6 10 14.7 13.1 27.3 7.2-.7 13.5-4.3 18.1-7.8 4.2 1.3 9.4 2.1 15.3 2.6-1.3-1.7-3.6-4.1-5.4-5.7 17.8 4.9 64.4 4.3 88 3.5-3.9-2.4-6.2-5-7.7-8.6 2.6 2.4 12.5 7.7 21.1 8.8-.4-2.7-3.5-6.1-8.4-9.1 21.8 3.8 69.5 7.5 82.5 7.6v239H374v-117.6zm128.8-59.4c1.4 2.7 2.7 5.6 4 8.7 3.6-1.2 7.2-2.3 10.8-3.4-5.1-3.5-10.1-5.6-14.8-5.3zm-43.5-9.6c4.2 8.2 7.7 18.5 10.5 30.8 3.9-1.4 7.8-2.7 11.8-4.1-6.8-11.3-14.2-20.1-22.3-26.7z"/><linearGradient id="SVGID_7_" gradientUnits="userSpaceOnUse" x1="711.7067" y1="1108.0867" x2="711.7067" y2="1278"><stop offset="0" stop-color="#1e5cc6"/><stop offset="1" stop-color="#3b83ff"/></linearGradient><path fill-rule="evenodd" clip-rule="evenodd" fill="url(#SVGID_7_)" d="M1025 1108.5c0-3.8-309.2 22.3-436 60 83.8-17.4 186.3-33.8 280.7-30.3-156.4 3.7-322.8 60.9-471.3 139.9H1025v-169.6z"/></g></svg>