<svg id="master-artboard" version="1.1" xmlns="http://www.w3.org/2000/svg" x="0" y="0" width="645" height="1155"><path id="ee-background" fill="#fff" fill-opacity="0" pointer-events="none" d="M0 0h645v1155H0z"/><linearGradient id="SVGID_1_" gradientUnits="userSpaceOnUse" x1="1400" y1="1400" x2="5e-8" y2="-5e-8"><stop offset="0" stop-color="#ff9d70"/><stop offset="1" stop-color="#fff1a3"/></linearGradient><linearGradient id="SVGID_2_" gradientUnits="userSpaceOnUse" x1="1175.75" y1="1172.25" x2="272.25" y2="268.75"><stop offset="0" stop-color="#ec8b5b"/><stop offset="1" stop-color="#efd181"/></linearGradient><linearGradient id="SVGID_3_" gradientUnits="userSpaceOnUse" x1="700.5" y1="121" x2="700.5" y2="1278"><stop offset="0" stop-color="#ff9d2e"/><stop offset="1" stop-color="#ffffba"/></linearGradient><path d="M375 121h651v1157H375V121z" fill-rule="evenodd" clip-rule="evenodd" fill="url(#SVGID_3_)" transform="translate(-380.77523804 -122.79069519)"/><path fill-rule="evenodd" clip-rule="evenodd" fill="#FFEC8C" d="M375 712l244.1 10.4-171.8 8.8L800 746H375v-34zm433.9 149.6l-106.7-1.5 66.7 5.9 40-4.4zm217.1-60.7L626.5 812l399.5 14.8v-25.9z" transform="translate(-380.77523804 -122.79069519)"/><g transform="translate(-380.77523804 -122.79069519)"><linearGradient id="SVGID_4_" gradientUnits="userSpaceOnUse" x1="484.646" y1="850.55" x2="484.646" y2="1041"><stop offset="0" stop-color="#b06a41"/><stop offset="1" stop-color="#ffeb99"/></linearGradient><path d="M381.2999878 1041l17.8000183-103.7999878-5.8999939-33.29998779 5.8999939-14.80004882L392.3999939 878l.8000183-13.40002441 62.8999939-14 8.1999817 12.5-1.5 37.10003662 20 15.5 13.3000183 96.89996338 29.6000061 6.10003662L531 947.59997559l11.09997559-16.2999878 2.90002441-41.5 19.2999878 8.90002442L565 932l15.59997559 66.7000122L588 1041z" fill-rule="evenodd" clip-rule="evenodd" fill="url(#SVGID_4_)"/><linearGradient id="SVGID_5_" gradientUnits="userSpaceOnUse" x1="470.5427" y1="852.3336" x2="470.5427" y2="1041"><stop offset="0" stop-color="#f7ac56"/><stop offset="1" stop-color="#ffe478"/></linearGradient><path fill-rule="evenodd" clip-rule="evenodd" fill="url(#SVGID_5_)" d="M448.2 852.3l-37 12.3 6.6 11.1-5.9 19.6 3.7 41.9-8.9 4.4-5.2 33-9.3 27.1 5.5 20.3 9.7-19.2.2-27.3 10.5-35.3 1.1-30.7 7.8-14.8 15.9 30 .7 20.8-4.8 21.1 2.9 28.6.1-26.4 5.2-17 11.1 19.6 7.1 56 26.6 13.8H381.3l17.8-103.8-5.9-33.3 5.9-14.8-6.7-11.1.8-13.3 55-12.6zm77.5 166.4l5.2-71.1 11.1-16.3 3-41.5 8.3 10.7-.7 20.7-7.4 14.1-1.9 20-6.6 25.2 9.6-17.8 1.5-15.6 5.9-8.5 6 22.6-4.2 66.3-24 4.8-5.8-13.6zm-64.3-56.9l-1.8-12.3 3-10.7 1.9 8.5-3.1 14.5zm-15.1-54.2l-1.9-17 4.1-18.5 2.2 11.8-4.4 23.7z"/></g><g transform="translate(-380.77523804 -122.79069519)"><linearGradient id="SVGID_6_" gradientUnits="userSpaceOnUse" x1="882.0913" y1="774.2587" x2="882.0913" y2="1041"><stop offset="0" stop-color="#b06a41"/><stop offset="1" stop-color="#ffeb99"/></linearGradient><path d="M752.7999878 1028.40002441l19.2000122-107.5 14.2000122-16.30004882 12.5-51.09997559L812 839.40002441l.7999878-25.10003662-23-27.39996338L799.5 774.2999878 921 789.0999756l11-6L987.59997559 795l4.5 102.2000122L998 912.7999878l14.7999878 96.29998779L1025.5 1041H738.7000122z" fill-rule="evenodd" clip-rule="evenodd" fill="url(#SVGID_6_)"/><linearGradient id="SVGID_7_" gradientUnits="userSpaceOnUse" x1="853.1674" y1="774.2587" x2="853.1674" y2="1041"><stop offset="0" stop-color="#f7ac56"/><stop offset="1" stop-color="#ffe478"/></linearGradient><path fill-rule="evenodd" clip-rule="evenodd" fill="url(#SVGID_7_)" d="M921 789.1l-95.9-6.6-.4 5.5 38.1 25.2-.7 25.2-9.6 12.9-5.2 56.3-15.2 15.5-12.2-12.6 3.7-54.8-7.4 55.6-8.5 10.4-14.1 55.2 16.3-52.2 8.9-8.2 14.1 11.8 4.1 81.1V928l16.2-15.9 16.1-52.6 21.6 64.4-8.5 50 13.7-48.9 16.7-32.2-2.2-36.6 14.1-27.8-1.1 32.2-6.6 33.3 9 25.9-9.9 79.3v41.9H738.7l14.1-12.6L772 920.9l14.1-16.3 12.6-51.1 13.3-14.1.8-25.2-23-27.4 9.7-12.6L921 789.1zm24.8 141.8l17-43.7.3 47.4 4.4 12.6-5.2 26.3-15.1-28.5-1.4-14.1zm-55.4-116.3l-5.4 21.9v13.3l6.2-11.1-.8-24.1z"/></g><g transform="translate(-380.77523804 -122.79069519)"><path fill-rule="evenodd" clip-rule="evenodd" fill="#D08F4D" d="M931 949c38.6 0 63 36 95 54.1V1278H375v-250.4c109-24.6 161.5-70.4 213.3-70.4 53.5 0 106 59.9 163.9 58.5 60.6-1.4 132.3-66.7 178.8-66.7z"/><linearGradient id="SVGID_8_" gradientUnits="userSpaceOnUse" x1="691.167" y1="949.0266" x2="691.167" y2="1278"><stop offset="0" stop-color="#f0cd59"/><stop offset="1" stop-color="#f0cd59" stop-opacity=".4"/></linearGradient><path fill-rule="evenodd" clip-rule="evenodd" fill="url(#SVGID_8_)" d="M543.6 1278H375v-250.4c109-24.6 161.5-70.4 213.3-70.4 23.3 15.2-12.9 19.6 15.7 45.5 14.5 13.1-22.1 38.1-97.9 51.2-63.2 11 103.6 43 229.3 17.4 18 22.1-32.1 33.8-81.5 38.5 43.2 1.6 90.7-2.9 123-11.9 57 71-196.7 122-313.3 116.3 45.3 11.9 105.4 11.6 170.4.1 38.7 30.8-17.4 52.7-90.5 63.7h.1zm272.5-65.4c69.1-6.8 131.2-19.3 175.6-45.9 33.8 44.1-79.7 66.8-175.6 45.9zm-63.9-196.9c60.5-1.4 132-66.7 178.5-66.7 31.8 17.7-7.8 34.6 28.8 53.6 19.8 10.3 10.9 26.8-12.4 40.7 20.2-4.2 44.9-19.5 56.1-17.8 28.5 31.4-97 44.3-155.2 32.2 21.5.2 61.4-3.3 84.1-11-62.9 2.1-126.6-12.2-179.9-31z"/><linearGradient id="SVGID_9_" gradientUnits="userSpaceOnUse" x1="816.8541" y1="1025.422" x2="816.8541" y2="1278"><stop offset="0" stop-color="#b37055"/><stop offset="1" stop-color="#b37055" stop-opacity=".4"/></linearGradient><path fill-rule="evenodd" clip-rule="evenodd" fill="url(#SVGID_9_)" d="M785.5 1099.7c21.2 13.5 10.8 57.6-87.1 85 98-15.9 167.6 11.1 246.8-30 23.3-12.3-69.6-21.7-159.7-55zm240.5-67.5c-6 0-14.1-4.4-18.9-6.8 10.8 19.5-12.2 32.4-106.1 40.7 75.5 3.2 92 20.1 125 17.3v-51.2zM607.7 1278H1026v-10.9c-70 4.8-108.5-1.5-141.1-9.9-40.6-14.8-43.2 5-104.4 2.9-66.9-7.6-81.5-31.8-126.1-44.3-21.3-5.2 27.9 35.2-46.7 62.2zm418.3-45.7v-52.4c-10-3.8-22.8-12.6-30.8-13.8 15.3 19.9 0 41.6-46.3 53.6 34.9 1.3 46.1 12.4 77.1 12.6z"/></g><g fill-rule="evenodd" clip-rule="evenodd"><path fill="#A6B362" d="M465.6 1045.7c45.6-.8 35.6-34.6 37.6-46.9 3.1-19.4-13.7-15.9-14.6-5.7-1.2 13.9-3.2 40-18.7 31.1 2.2-10.3 4.3-20.5 6-30.7 7.2-44.3-31.3-36.2-33.3-13-.9 10.3-.9 19.6-.9 28.9-27.5 3.8-18.2-25.9-19.4-39.8-.9-10.1-17.8-13.7-14.6 5.7 2 12-7.4 44.2 33.9 46.7-.2 16.1-1.4 33.3-7.3 56l27.3.3c.4-10.6 2-21.5 4-32.6z" transform="translate(-380.77523804 -122.79069519)"/><path fill="#968D4B" d="M465.6 1045.7c5.8-.1 10.7-.7 14.8-1.8l3.1 4.9-1.5-5.4c6.5-1.9 10.9-4.9 14-8.5l7.9.7-6.5-2.7c7.7-11.1 4.5-26.7 5.7-34.2.1-.9.2-1.7.3-2.5l8.9.8-8.8-3.6c-.2-4.7-2-7.3-4.4-8.3 4.8 6.1 2 39.9-6.1 44 5.6-9.4 7.7-27.3 5.8-35.7-.2 5.1-2.3 41.8-16.3 28.1-2.7 4.2-6.6 6-12.6 2.6l.7-3.3 9 .8-8.4-3.4c1.7-8.3 3.4-16.6 4.8-24.8.8-5.3 1-9.9.7-13.7l6.8-1.5-7-.6c-1.1-8.4-4.9-13.2-9.6-15.1 13.8 17.7-6 74.5-9.5 107-2 1.5-1.9 3-3.9 4.5 3.6-26 16.9-73.5 12.7-92.7-.9 28.2-11.3 66.3-17.7 96.8l13.2.2c.3-7.5 1.2-15 2.3-22.6l8.1.8-7.7-3.1c.2-2.5.7-5.1 1.2-7.7zm-24-23.5c-1-.1-2-.1-3-.2l-.8-.4c1.7-4.6-12.7-9.8-15.1-18-4.3-14.9.4-33.9-3.4-36.3.7 5.4-1.7 31.7 2.5 39.4-6.9-8.2-.9-40.8-7.7-45.1 3.8.1 7.8 3.4 8.3 8.2.1 1.5.1 3.1.1 4.8l9.5.7-9.6 2.1c-.6 12.2-2.7 28.2 9.3 31.7l5.9-6.9-3.3 7.4c2.1.2 4.6.2 7.5-.2-.1 4.3-.1 8.5-.2 12.8z" transform="translate(-380.77523804 -122.79069519)"/><path fill="#E2F294" d="M425.2 1018.9c-11.5-4.7-15.4-13.4-16.7-22.1l-9.2.7 8.9-3.5c-.7-7.2.1-14.2-.6-18.5-.3-2.3-.5-4.3-.3-6l-8.5-2.8 8.9.2c.7-2.7 2.2-4.2 3.9-4.9-4.8 6.1-3.7 36.6 3 44.6-4.2-10.6-4.5-28-2.7-36.4 2.4 27.6.3 40.4 13.3 48.7zm36.2-57.1c-8.6.1-17.9 7.8-18.8 18.8-.3 3.1-.5 6.2-.6 9.1l-9.6-.2 9.4 3.1c-.3 8.8-.2 17.1-.3 25.6l-8.7-.2 8.6 2.8c-.2 15.7-1.1 32.3-6.4 53.9 17-44.2 1.3-103.4 19.9-108.1-11.3 5.4-3.5 55.4-13 99.3 11-37.9 3.8-94.2 19.5-104.1zm22.6 57c5.4-5.9 4.1-28 10-31.8-3.7 3.8-2.3 21.6-6.5 29.3 6.9-8.2 2.4-27.1 9.3-31.4-2.2 0-4.5 1.2-6.1 3.1l-10.2-.2 8.6 2.8c-.3.8-.5 1.6-.6 2.6-.6 7.4-1.4 18.4-4.5 25.6z" transform="translate(-380.77523804 -122.79069519)"/><path fill="#B37055" d="M461.7 1075.7c82.2 12.8 191.7-1.1 166.8 5.2-25.9 6.5-123.5 8.6-194.2-2.8 10.8-.7 28.1 1.3 27.4-2.4z" transform="translate(-380.77523804 -122.79069519)"/></g></svg>