<svg id="master-artboard" version="1.1" xmlns="http://www.w3.org/2000/svg" x="0" y="0" width="645" height="1155"><path id="ee-background" fill="#fff" fill-opacity="0" pointer-events="none" d="M0 0h645v1155H0z"/><linearGradient id="SVGID_1_" gradientUnits="userSpaceOnUse" x1="1400" y1="1400" x2="5e-8" y2="-5e-8"><stop offset="0" stop-color="#e959ff"/><stop offset="1" stop-color="#7f5cff"/></linearGradient><linearGradient id="SVGID_2_" gradientUnits="userSpaceOnUse" x1="1175.75" y1="1172.25" x2="272.25" y2="268.75"><stop offset="0" stop-color="#c443ff"/><stop offset="1" stop-color="#703dff"/></linearGradient><linearGradient id="SVGID_3_" gradientUnits="userSpaceOnUse" x1="700.5" y1="1279" x2="700.5" y2="122"><stop offset="0" stop-color="#e959ff"/><stop offset="1" stop-color="#501ec7"/></linearGradient><path d="M375 122h651v1157H375V122z" fill-rule="evenodd" clip-rule="evenodd" fill="url(#SVGID_3_)" transform="translate(-377.05432129 -122.79064941)"/><g fill-rule="evenodd" clip-rule="evenodd"><path fill="#8426DD" d="M375 855.1l257.1 7.4-185.1 2.7 49.7 4.8H375v-14.9zm535.1-237.4l45.4 2.7 18.2-1-63.6-1.7zm23 10.7l-59.5.9-36.7-5.9-33.3-1.1 50.4-.8 79.1 6.9zM1026 781H630.8l361.5 5.2-188.6 3 222.3 5.2V781zm-606.5-61.4l150.6.7-89.3-6.7 57.5-1-153.4-2.8 92 7-57.4 2.8z" transform="translate(-377.05432129 -122.79064941)"/><path fill="#EC70FF" d="M599.9 696.7c-.9 0-1.7-.7-1.7-1.7 0-.9.7-1.6 1.7-1.6.9 0 1.6.7 1.6 1.6 0 .9-.7 1.7-1.6 1.7zm130.6 72.8c-.4 0-.7-.4-.7-.8s.3-.7.7-.7c.4 0 .7.4.7.7 0 .4-.3.8-.7.8zm267.4-46c-.4 0-.7-.3-.7-.7 0-.4.3-.7.7-.7s.7.3.7.7c0 .4-.3.7-.7.7zm-93.3-127.4c-.4 0-.7-.3-.7-.8 0-.4.3-.7.7-.7s.7.3.7.7c0 .5-.3.8-.7.8zm-96.3 125.2c-.4 0-.7-.3-.7-.7 0-.4.4-.7.7-.7.4 0 .7.3.7.7 0 .4-.3.7-.7.7zm-348.9-35.5c-.4 0-.7-.3-.7-.7 0-.4.3-.7.7-.7.4 0 .7.3.7.7 0 .3-.3.7-.7.7zm-36.9-96.4c-.4 0-.7-.4-.7-.8s.3-.7.7-.7c.4 0 .7.4.7.7.1.4-.3.8-.7.8zm124.8 98.5c-.6 0-1.1-.5-1.1-1.1 0-.6.5-1.1 1.1-1.1.6 0 1.1.5 1.1 1.1 0 .6-.4 1.1-1.1 1.1zm396.4-57.8c-.6 0-1.1-.5-1.1-1.1s.5-1.1 1.1-1.1c.6 0 1.1.5 1.1 1.1s-.5 1.1-1.1 1.1zm-274.5 40.4c-.6 0-1.1-.5-1.1-1.1 0-.6.5-1.1 1.1-1.1.6 0 1.1.5 1.1 1.1 0 .6-.5 1.1-1.1 1.1zm224.3-1.8c-.6 0-1.1-.5-1.1-1.1 0-.6.5-1.1 1.1-1.1.6 0 1.1.5 1.1 1.1.1.6-.4 1.1-1.1 1.1zM582.6 542.1c-.9 0-1.6-.8-1.6-1.7 0-.9.7-1.7 1.6-1.7.9 0 1.7.8 1.7 1.7 0 .9-.7 1.7-1.7 1.7zm143.6 79.2c-.9 0-1.7-.7-1.7-1.6 0-.9.7-1.7 1.7-1.7.9 0 1.6.7 1.6 1.7 0 .9-.7 1.6-1.6 1.6z" transform="translate(-377.05432129 -122.79064941)"/></g><path fill-rule="evenodd" clip-rule="evenodd" fill="#E773FF" d="M574.6 1049c27.7 0 50.3-22.6 50.3-50.3 0-27.7-22.6-50.4-50.3-50.4-27.8 0-50.4 22.6-50.4 50.4 0 27.7 22.6 50.3 50.4 50.3z" transform="translate(-377.05432129 -122.79064941)"/><g fill-rule="evenodd" clip-rule="evenodd"><path fill="#680EAD" d="M799.2 999c2.7 0 23.8-67.2 23.8-109 18.3-25 20.7-73.9 19.2-108.2-1.7-2-3.7-3.3-6-3.7 4.1-3.2 8.3-5.1 12.6-5.9-3.5-2.1-7.2-3.5-11.3-4.5 36.9-11.7 74.6-9.1 112.8 2.9 20.8 19.3 38.1 57.2 58.7 74.1 4.7 3 9.8 5.7 16.8 7.4V999H799.2z" transform="translate(-377.05432129 -122.79064941)"/><path fill="#9E23CC" d="M799.2 999c2.7-51 23.8-67.2 23.9-109 18.3-25 20.7-73.9 19.2-108.2 5.1-1.7 10.6-2.6 16.2-3.3-2.2 1.3-3.6 3-4.6 5 4.2-2.9 9.5-4.1 15.6-4.3 2.6 58.7-3.3 77.3 2.2 123-5.7 14.9-19.8 42.7-26.3 52.2-2.9-35.7-7.2-64.2-17-64.8 10.1 5.9.6 70.1 4.4 104.4 8.7-4.4 27.8-73.2 43.3-89.1C883.3 916 889.8 930 887 999h-87.8zm94.3-99c-9.4-37.5-11.1-52.5-12.2-91.1 7.4 5 14.8 12.1 22.2 24.5 2.4 30.6-3 49.8-10 66.6zm24.9.7c0 10.9.8 21.7 2.2 32.6 5.2 13.5 6.6 16.6 11.9 25.6-5.8-26-6.6-53.5-14.1-58.2z" transform="translate(-377.05432129 -122.79064941)"/><path fill="#680EAD" d="M715.8 999c3.3 0 8.7-61.6 17.4-63.2 3.2 3.9 5.1 14.2 6.3 27.5C745.8 984 754.4 983 757 999h-41.2z" transform="translate(-377.05432129 -122.79064941)"/><path fill="#9E23CC" d="M727.7 943.6c3.1 9.1 1.7 26.6.3 44.2 1.7-3.3 3.2-6.9 4.3-11.9 4.2 5 5.9 13.1 7.2 23.1h-23.7c2.5-22 5.7-43.5 11.9-55.4z" transform="translate(-377.05432129 -122.79064941)"/><g><path fill="#680EAD" d="M382.2 999c3.3 0 8.1-96.4 19.2-110.7 3.4-28.3 7.4-54.8 19.2-57.8 8.9-4.4 15.4-.8 20.8 6.6l-1.5 11.1c-.1 29.3 6.4 46.6 9.6 69.8-.2 45.9 13.2 45.1 17 81.1-28.1-.1-56.2-.1-84.3-.1z" transform="translate(-377.05432129 -122.79064941)"/><path fill="#9E23CC" d="M437.5 848.1c-.1 29.3 8.8 46.6 12 69.8-.2 45.9 13.2 45.1 17 81.1H452c-5.3-15-11.1-28.5-17.6-40.7 1.7 13.4.5 23.9-1.3 33.8-.6-24.1-4.7-46.2-11.3-66.9 4.4 8.1 8.6 16.7 11.3 29.8 3.6-10.6 5.5-20.5 6.1-29.8-3.4-18.5-6.4-37.5-8.3-58.7.4-10.5 1.6-19.8 3.7-27.6 1.4 2.4 2.2 5.6 2.9 9.2z" transform="translate(-377.05432129 -122.79064941)"/></g></g><g transform="translate(-377.05432129 -122.79064941)"><path d="M375 999h651v280H375V999z" fill-rule="evenodd" clip-rule="evenodd" fill="#C125D9"/><linearGradient id="SVGID_4_" gradientUnits="userSpaceOnUse" x1="700.5" y1="1005.369" x2="700.5" y2="1268"><stop offset="0" stop-color="#d640ed"/><stop offset="1" stop-color="#d640ed" stop-opacity="0"/></linearGradient><path fill-rule="evenodd" clip-rule="evenodd" fill="url(#SVGID_4_)" d="M1026 1005.4l-603.8 4.4L913 1023H375v80.9l651 17.8v-116.3zm-651 256.3l223.2 6.3H375v-6.3zm651-36.3l-574.6 11.1L1026 1255v-29.6zm-651-103l623 24.4-458.9 12.6L1026 1175v34H375v-86.6z"/><linearGradient id="SVGID_5_" gradientUnits="userSpaceOnUse" x1="700.5" y1="1267.5912" x2="700.5" y2="1005"><stop offset="0" stop-color="#a40fd6"/><stop offset="1" stop-color="#a40fd6" stop-opacity="0"/></linearGradient><path fill-rule="evenodd" clip-rule="evenodd" fill="url(#SVGID_5_)" d="M1026 1267.6l-603.8-4.9L913 1249H375v-79.9l651-17.8v116.3zm-651-256.3l223.2-6.3H375v6.3zm651 36.3l-574.6-11.1L1026 1018v29.6zm-651 103l623-24.5-458.9-12.6L1026 1098v-34H375v86.6z"/></g><g fill-rule="evenodd" clip-rule="evenodd"><path d="M718.7999878 1106.80004883l38.9000244-2.10009766L956 1105.5999756l-28.5 1.5L989 1108l-180 7.30004883 33.5 1.79992676-58.5 1.5z" fill="#8515BD" transform="translate(-377.05432129 -122.79064941)"/><path fill="#680EAD" d="M695.5 1077.4c76.2 9.5 158.4 8.3 239.3 8.3l-15.9 20.2H736.2c-16.1-6.9-30-16.8-40.7-28.5z" transform="translate(-377.05432129 -122.79064941)"/><path fill="#EC70FF" d="M695.5 1077.7c22.5 2.8 45.6 4.7 68.9 5.9-.3.5-.6.9-.9 1.4-21.5-1.1-43-2.7-64.5-5.8l8.3 9.4c-4.2-3.3-8.2-7-11.8-10.9zM712.7 1106l28.3-2.8 27.2 3.3-55.5-.5zm84.3 9.3l28.3-2.8 27.2 3.3-55.5-.5zm65.9.9l27.3-2.8 18.1 1.9-45.4.9zm34.2-9.7l30.6-3.6 57 5.3-87.6-1.7z" transform="translate(-377.05432129 -122.79064941)"/><path fill="#680EAD" d="M763.4 1067.2c.4 1.5 1.3 2.5 2.5 3.3 1-.2 1.7-.5 2.4-.8.5 0 .9.4 1.3.9-3 2.7-2.5 9.6-6 14.4 7.2 1.5 14.1 1.5 20.8.5-.4-5.5-4.4-15.4-9.5-15.9-.8-.8-1.4-1.9-2-3.1 4.5-.6 8.9-1.5 13.4-2.8l-19.9-11.1-16.3 13.5c4.3.8 8.8 1.1 13.3 1.1z" transform="translate(-377.05432129 -122.79064941)"/><path fill="#EC70FF" d="M767.4 1074.6c-.9 2.9-1.5 6.6-3.4 9.7 1.9-2.9 3.4-5.9 4.7-8.9l-1.3-.8zm8.9-16.4l-9.9-5.5-16.3 13.5c1.6.2 3.1.5 4.8.6-2.3-3.3 8.1-8.9 11.9-13 3.2 1.2 6.1 3.2 9.5 4.4z" transform="translate(-377.05432129 -122.79064941)"/><g><path fill="#680EAD" d="M841.8 1029.8c.4 1.5 1.3 2.5 2.5 3.3 1-.2 1.8-.5 2.4-.7.5-.1.9.4 1.3.9-2.7 2.4-5.1 6.5-7.8 11.2-.9.2-1.5.2-2.1-.1l-2-2.1c-.1-.1-.2-.3-.3-.5-.4-.4-.7-.7-1-.9l-8.7-9.1c-.9.1-1.3.6-1.1 1.7l8 8.4c-.1.9.1 2.1.7 3.4 1.5 1.4 3.7 3.2 6.3 3.9l7 7.3v1.3c-6 11.2-7 16.3-5.3 29.6 1.4.1 2.8.1 4.1.2.3-7.2 2.9-14.6 6.5-20.1 1.3 6.9 2.9 14.7 5 21.6 2.8.5 5.6 1 8.4 1.6-2-5.7-3.7-13.1-4.9-19.9l39.8 41.4h3.3l-43.7-45.1c-.5-3.5-.8-6.8-.9-9.9 2.1-3.2 5.3-5.6 4.7-10.8-.4-5.5-5.7-13.5-10.8-14.1-.8-.8-1.4-1.8-1.9-3 4.4-.6 8.9-1.5 13.4-2.8l-19.9-11.1-16.3 13.5c4.4.6 8.8.9 13.3.9zm1 19.3c2.5-1.9 2.7-4.9 4-3.8.6 2 .4 5.2.2 8.2l-4.2-4.4z" transform="translate(-377.05432129 -122.79064941)"/><path fill="#EC70FF" d="M841.8 1029.8c.4 1.5 1.3 2.5 2.5 3.3.2 0 .3-.1.5-.1l-3-3.2zm4.7 5c-2.1 2.4-4.1 5.8-6.3 9.6 2.3-3.3 4.5-6.5 7-8.9l-.7-.7zm-20.4-3.1c-.9.1-1.3.6-1.1 1.7l8 8.4c-3.4-4-7-8-6.9-10.1zm20.9 24.7v1.3c-5 8.9-6.3 13.9-5.9 22.3 1.4-7.6 3.4-15 7.8-21.5-.7-.7-1.9-1.4-1.9-2.1zm5.8-36.6l-8.1-4.5-16.3 13.5c4.4.7 8.9 1 13.3 1-3-.4-6.1-.9-9-1.8 4-3.6 8.2-7.9 12.2-11.5 2.7.8 5.3 2.4 7.9 3.3z" transform="translate(-377.05432129 -122.79064941)"/></g></g></svg>