<svg xmlns="http://www.w3.org/2000/svg" viewBox="0 -50 435.223 435.223">
  <path d="M289.454 93.349c-4.143 0-7.5 3.358-7.5 7.5s3.357 7.5 7.5 7.5c27.465 0 49.81 22.344 49.81 49.809s-22.345 49.809-49.81 49.809h-87.468c-4.143 0-7.5 3.358-7.5 7.5s3.357 7.5 7.5 7.5h13.004l-17.155 24.205c-1.621 2.288-1.831 5.29-.543 7.781 1.287 2.491 3.857 4.056 6.662 4.056h20.214l-69.432 63.666 25.397-47.775c1.236-2.325 1.162-5.127-.194-7.384-1.356-2.256-3.796-3.637-6.429-3.637h-32.189l45.46-61.89c2.452-3.338 1.733-8.033-1.605-10.484-3.336-2.453-8.033-1.734-10.484 1.604l-54.229 73.83c-1.674 2.279-1.924 5.305-.647 7.828s3.864 4.112 6.691 4.112h34.523l-40.041 75.323c-1.714 3.225-.856 7.216 2.032 9.452 1.356 1.05 2.975 1.569 4.589 1.569 1.824 0 3.642-.663 5.07-1.972l115.833-106.214c2.28-2.09 3.043-5.365 1.921-8.247-1.121-2.882-3.896-4.781-6.989-4.781h-24.981l14.913-21.042h56.078c35.736 0 64.81-29.073 64.81-64.809s-29.075-64.809-64.811-64.809zM140.111 214.456c0-4.142-3.358-7.5-7.5-7.5H82.458c-31.153 0-56.499-25.345-56.499-56.499s25.345-56.499 56.499-56.499c11.191 0 22.02 3.279 31.313 9.483 2.382 1.59 5.462 1.685 7.938.244s3.914-4.167 3.707-7.023l-.038-.524c-.129-1.761-.25-3.425-.25-5.034C125.127 49.14 159.266 15 201.23 15c34.827 0 65.153 23.535 73.748 57.233 1.024 4.015 5.108 6.436 9.121 5.414 4.014-1.023 6.438-5.107 5.414-9.121C279.222 28.179 242.92 0 201.23 0c-48.055 0-87.539 37.399-90.875 84.62-8.771-3.727-18.227-5.661-27.897-5.661-39.424 0-71.499 32.074-71.499 71.499s32.074 71.499 71.499 71.499h50.153c4.142-.001 7.5-3.359 7.5-7.501z"/>
</svg>
