<svg xmlns="http://www.w3.org/2000/svg" viewBox="0 -30 270.73 270.73">
  <path d="M169.316 53.114c-1.193 0-2.388.036-3.582.108-9.796-23.143-33.3-38.831-59.221-38.831-35.335 0-64.082 28.178-64.082 62.813 0 .121 0 .243.001.365C18.732 79.352 0 98.846 0 122.552c0 24.876 20.625 45.113 45.977 45.113h123.34c32.209 0 58.414-25.693 58.414-57.275s-26.205-57.276-58.415-57.276zm0 99.551H45.977C28.896 152.665 15 139.156 15 122.552c0-16.605 13.896-30.115 30.977-30.115 1.054 0 2.226.079 3.687.25 2.317.274 4.624-.551 6.248-2.222 1.625-1.672 2.379-4.004 2.043-6.31-.347-2.38-.523-4.719-.523-6.951 0-26.364 22.018-47.813 49.082-47.813 21.54 0 40.879 14.035 47.027 34.132 1.102 3.6 4.703 5.831 8.412 5.202 2.42-.405 4.897-.611 7.363-.611 23.938 0 43.414 18.965 43.414 42.275 0 23.311-19.475 42.276-43.414 42.276zM47.55 179.049l-21.486 21.486c-2.929 2.93-2.929 7.678 0 10.607 1.464 1.464 3.384 2.196 5.303 2.196s3.839-.732 5.303-2.196l21.486-21.486c2.929-2.93 2.929-7.678 0-10.607-2.928-2.928-7.677-2.928-10.606 0zM93.386 179.05l-21.484 21.486c-2.929 2.929-2.928 7.678.001 10.606 1.465 1.464 3.384 2.196 5.303 2.196s3.839-.732 5.304-2.197l21.484-21.486c2.929-2.929 2.928-7.678-.001-10.606-2.93-2.928-7.679-2.929-10.607.001zM139.222 179.05l-21.484 21.486c-2.929 2.929-2.928 7.678.001 10.606 1.465 1.464 3.384 2.196 5.303 2.196s3.839-.732 5.304-2.197l21.484-21.486c2.929-2.929 2.928-7.678-.001-10.606-2.93-2.928-7.679-2.929-10.607.001zM185.06 179.049l-21.486 21.486c-2.929 2.93-2.929 7.678 0 10.607 1.464 1.464 3.384 2.196 5.303 2.196s3.839-.732 5.303-2.196l21.486-21.486c2.929-2.93 2.929-7.678 0-10.607-2.928-2.928-7.677-2.928-10.606 0z"/>
</svg>
