<svg viewBox="15 0 240 240" fill="none" xmlns="http://www.w3.org/2000/svg">
  <path d="M233.156 117.461c-.875-1.866-2.221-3.471-3.907-4.658-1.685-1.186-3.65-1.913-5.702-2.108-10.226-1.044-19.709-5.816-26.641-13.4059-5.949-6.687-10.014-14.8349-11.779-23.6094-1.766-8.7745-1.168-17.8606 1.733-26.3281.682-2.044.826-4.2297.417-6.3456s-1.358-4.0904-2.753-5.7325c-1.281-1.5134-2.936-2.6652-4.8-3.3409-1.864-.6757-3.872-.8517-5.825-.5106l-.149.0234c-13.38 2.9394-25.408 10.2323-34.201 20.7372-8.793 10.5049-13.854 23.6288-14.393 37.3175-6.304-2.3283-12.967-3.534-19.687-3.5625-12.4416.0659-24.5438 4.0637-34.5765 11.4219-10.0326 7.3585-17.4819 17.6995-21.283 29.5465-10.8641 3.1-20.2411 10.024-26.4013 19.494-6.1603 9.471-8.6884 20.849-7.1181 32.037 1.5703 11.188 7.1331 21.431 15.6624 28.84 8.5293 7.409 19.4499 11.484 30.7477 11.473h85.9378c7.569.029 15.032-1.782 21.745-5.277 6.714-3.496 12.477-8.571 16.794-14.788 4.316-6.218 7.057-13.392 7.985-20.904.928-7.512.016-15.137-2.657-22.218 8.153-1.303 15.938-4.312 22.848-8.832 6.909-4.519 12.786-10.447 17.246-17.395 1.147-1.743 1.82-3.755 1.953-5.837s-.279-4.163-1.196-6.038zm-84.718 85.664H62.5002c-7.8258.013-15.3707-2.916-21.138-8.206-5.7673-5.289-9.3357-12.553-9.9975-20.351-.6618-7.798 1.6315-15.56 6.4249-21.746 4.7933-6.186 11.7367-10.344 19.4527-11.65l5.1797-.875 1.1328-5.125c2.1201-9.536 7.4284-18.064 15.0487-24.176 7.6202-6.112 17.0968-9.443 26.8655-9.443 9.769 0 19.245 3.331 26.865 9.443 7.621 6.112 12.929 14.64 15.049 24.176l1.133 5.125 5.179.883c7.707 1.316 14.638 5.478 19.422 11.661 4.783 6.183 7.071 13.937 6.41 21.727-.661 7.79-4.223 15.047-9.981 20.336-5.757 5.288-13.291 8.222-21.108 8.221zm34.882-62.508h-.164c-5.842-6.535-13.411-11.288-21.836-13.711-3.671-11.428-10.761-21.455-20.312-28.7262-.078-.7891-.281-1.5391-.32-2.3438-.682-9.9946 1.815-19.9486 7.134-28.4381 5.318-8.4895 13.185-15.0796 22.475-18.8275-2.451 10.3804-2.352 21.1999.287 31.534 2.64 10.3341 7.741 19.8757 14.869 27.8096 8.112 8.822 18.765 14.904 30.485 17.406-3.981 4.788-8.967 8.64-14.604 11.284-5.637 2.644-11.787 4.014-18.014 4.013z" fill="#fff"/>
</svg>
