<svg viewBox="-30 -90 600 600" xmlns="http://www.w3.org/2000/svg">
  <path d="M236.363281 455.152344c94.894531.097656 180.621094-56.632813 217.625-144.007813 1.59375-3.753906.75-8.101562-2.132812-10.984375-2.882813-2.882812-7.226563-3.726562-10.980469-2.132812-66.828125 28.328125-143.410156 21.265625-203.929688-18.808594-60.519531-40.074219-96.914062-107.820312-96.921874-180.40625-.058594-29.035156 5.765624-57.785156 17.125-84.507812 1.59375-3.753907.75-8.097657-2.132813-10.984376C152.132812.4375 147.789062-.40625 144.035156 1.1875 40.582031 45.089844-17.65625 155.761719 4.742188 265.890625c22.398437 110.128906 119.238281 189.257813 231.621093 189.261719zM130.097656 30.300781c-25.148437 83.445313-2.425781 173.957031 59.148438 235.632813 61.675781 61.574218 152.1875 84.292968 235.628906 59.148437-44.953125 79.691407-135.171875 122.496094-225.332031 106.910157-90.15625-15.589844-160.769531-86.199219-176.355469-176.359376C7.597656 165.472656 50.402344 75.253906 130.097656 30.300781zm0 0"/>
</svg>
