<svg xmlns="http://www.w3.org/2000/svg" width="860" height="1540" viewBox="0 0 645 1155"><defs><linearGradient id="linear0" gradientUnits="userSpaceOnUse" x1="1442.4255" y1="933.5207" x2="1442.4255" y2="332.6296" gradientTransform="matrix(.88235 0 0 .86258 -953.488386 -265.238979)"><stop offset=".00243902" stop-color="#a4e5f4"/><stop offset=".4" stop-color="#60acc4"/><stop offset="1" stop-color="#352968"/></linearGradient><linearGradient id="linear1" gradientUnits="userSpaceOnUse" x1="1479.1189" y1="938.2026" x2="1514.587" y2="809.7448" gradientTransform="matrix(.88235 0 0 .86258 -953.488386 -265.238979)"><stop offset=".00243902" stop-color="#5599b7"/><stop offset="1" stop-color="#407da0"/></linearGradient><linearGradient id="linear2" gradientUnits="userSpaceOnUse" x1="1165.5443" y1="710.6317" x2="1196.986" y2="603.5735" gradientTransform="matrix(.88235 0 0 .86258 -953.488386 -265.238979)"><stop offset=".00243902" stop-color="#5599b7"/><stop offset="1" stop-color="#407da0"/></linearGradient><linearGradient id="linear3" gradientUnits="userSpaceOnUse" x1="1360.1658" y1="936.0609" x2="1420.1373" y2="825.6031" gradientTransform="matrix(.88235 0 0 .86258 -953.488386 -265.238979)"><stop offset=".00731707" stop-color="#496e9b"/><stop offset="1" stop-color="#3c578e"/></linearGradient><linearGradient id="linear4" gradientUnits="userSpaceOnUse" x1="1272.1626" y1="841.358" x2="1272.1626" y2="1004.4017" gradientTransform="matrix(.88235 0 0 .86258 -953.488386 -265.238979)"><stop offset=".00731707" stop-color="#373c77"/><stop offset="1" stop-color="#455589"/></linearGradient><linearGradient id="linear5" gradientUnits="userSpaceOnUse" x1="1442.4255" y1="1047.2766" x2="1442.4255" y2="1196.6957" gradientTransform="matrix(.88235 0 0 .86258 -953.488386 -265.238979)"><stop offset=".00731707" stop-color="#6eb2cc"/><stop offset="1" stop-color="#718fcc"/></linearGradient><linearGradient id="linear6" gradientUnits="userSpaceOnUse" x1="525.1168" y1="345.1552" x2="1126.0038" y2="345.1552" gradientTransform="matrix(.88235 0 0 .86258 -953.488386 -265.238979)"><stop offset="0" stop-color="#ccf4fa"/><stop offset=".00243902" stop-color="#ccf4fa"/><stop offset=".0959485" stop-color="#c2f0f7"/><stop offset=".2526" stop-color="#a8e6ef"/><stop offset=".4" stop-color="#8adae6"/><stop offset=".4737" stop-color="#87d3e3"/><stop offset=".5845" stop-color="#7fbeda"/><stop offset=".7186" stop-color="#719ccb"/><stop offset=".8695" stop-color="#5e6eb7"/><stop offset="1" stop-color="#4c40a3"/></linearGradient><linearGradient id="linear7" gradientUnits="userSpaceOnUse" x1="-.6081" y1="-3.8737" x2=".4114" y2="-3.8737" gradientTransform="matrix(0 -508.41384 -520.0658 0 -1672.557945 230.851895)"><stop offset="0" stop-color="#ccf4fa"/><stop offset=".00243902" stop-color="#ccf4fa"/><stop offset=".0959485" stop-color="#c2f0f7"/><stop offset=".2526" stop-color="#a8e6ef"/><stop offset=".4" stop-color="#8adae6"/><stop offset=".4737" stop-color="#87d3e3"/><stop offset=".5845" stop-color="#7fbeda"/><stop offset=".7186" stop-color="#719ccb"/><stop offset=".8695" stop-color="#5e6eb7"/><stop offset="1" stop-color="#4c40a3"/></linearGradient><linearGradient id="linear8" gradientUnits="userSpaceOnUse" x1="-.6081" y1="-3.4661" x2=".4114" y2="-3.4661" gradientTransform="matrix(0 -508.41384 -520.0658 0 -1672.557945 230.851895)"><stop offset="0" stop-color="#ccf4fa"/><stop offset=".00243902" stop-color="#ccf4fa"/><stop offset=".0959485" stop-color="#c2f0f7"/><stop offset=".2526" stop-color="#a8e6ef"/><stop offset=".4" stop-color="#8adae6"/><stop offset=".4737" stop-color="#87d3e3"/><stop offset=".5845" stop-color="#7fbeda"/><stop offset=".7186" stop-color="#719ccb"/><stop offset=".8695" stop-color="#5e6eb7"/><stop offset="1" stop-color="#4c40a3"/></linearGradient><linearGradient id="linear9" gradientUnits="userSpaceOnUse" x1="-.6081" y1="-3.9948" x2=".4114" y2="-3.9948" gradientTransform="matrix(0 -508.41384 -520.0658 0 -1672.557945 230.851895)"><stop offset="0" stop-color="#ccf4fa"/><stop offset=".00243902" stop-color="#ccf4fa"/><stop offset=".0959485" stop-color="#c2f0f7"/><stop offset=".2526" stop-color="#a8e6ef"/><stop offset=".4" stop-color="#8adae6"/><stop offset=".4737" stop-color="#87d3e3"/><stop offset=".5845" stop-color="#7fbeda"/><stop offset=".7186" stop-color="#719ccb"/><stop offset=".8695" stop-color="#5e6eb7"/><stop offset="1" stop-color="#4c40a3"/></linearGradient><linearGradient id="linear10" gradientUnits="userSpaceOnUse" x1="-.6081" y1="-4.2923" x2=".4114" y2="-4.2923" gradientTransform="matrix(0 -508.41384 -520.0658 0 -1672.557945 230.851895)"><stop offset="0" stop-color="#ccf4fa"/><stop offset=".00243902" stop-color="#ccf4fa"/><stop offset=".0959485" stop-color="#c2f0f7"/><stop offset=".2526" stop-color="#a8e6ef"/><stop offset=".4" stop-color="#8adae6"/><stop offset=".4737" stop-color="#87d3e3"/><stop offset=".5845" stop-color="#7fbeda"/><stop offset=".7186" stop-color="#719ccb"/><stop offset=".8695" stop-color="#5e6eb7"/><stop offset="1" stop-color="#4c40a3"/></linearGradient><linearGradient id="linear11" gradientUnits="userSpaceOnUse" x1="-.6081" y1="-4.3525" x2=".4114" y2="-4.3525" gradientTransform="matrix(0 -508.41384 -520.0658 0 -1672.557945 230.851895)"><stop offset="0" stop-color="#ccf4fa"/><stop offset=".00243902" stop-color="#ccf4fa"/><stop offset=".0959485" stop-color="#c2f0f7"/><stop offset=".2526" stop-color="#a8e6ef"/><stop offset=".4" stop-color="#8adae6"/><stop offset=".4737" stop-color="#87d3e3"/><stop offset=".5845" stop-color="#7fbeda"/><stop offset=".7186" stop-color="#719ccb"/><stop offset=".8695" stop-color="#5e6eb7"/><stop offset="1" stop-color="#4c40a3"/></linearGradient><linearGradient id="linear12" gradientUnits="userSpaceOnUse" x1="-.6081" y1="-3.3177" x2=".4114" y2="-3.3177" gradientTransform="matrix(0 -508.41384 -520.0658 0 -1672.557945 230.851895)"><stop offset="0" stop-color="#ccf4fa"/><stop offset=".00243902" stop-color="#ccf4fa"/><stop offset=".0959485" stop-color="#c2f0f7"/><stop offset=".2526" stop-color="#a8e6ef"/><stop offset=".4" stop-color="#8adae6"/><stop offset=".4737" stop-color="#87d3e3"/><stop offset=".5845" stop-color="#7fbeda"/><stop offset=".7186" stop-color="#719ccb"/><stop offset=".8695" stop-color="#5e6eb7"/><stop offset="1" stop-color="#4c40a3"/></linearGradient><linearGradient id="linear13" gradientUnits="userSpaceOnUse" x1="-.6081" y1="-3.5242" x2=".4114" y2="-3.5242" gradientTransform="matrix(0 -508.41384 -520.0658 0 -1672.557945 230.851895)"><stop offset="0" stop-color="#ccf4fa"/><stop offset=".00243902" stop-color="#ccf4fa"/><stop offset=".0959485" stop-color="#c2f0f7"/><stop offset=".2526" stop-color="#a8e6ef"/><stop offset=".4" stop-color="#8adae6"/><stop offset=".4737" stop-color="#87d3e3"/><stop offset=".5845" stop-color="#7fbeda"/><stop offset=".7186" stop-color="#719ccb"/><stop offset=".8695" stop-color="#5e6eb7"/><stop offset="1" stop-color="#4c40a3"/></linearGradient><linearGradient id="linear14" gradientUnits="userSpaceOnUse" x1="-.6081" y1="-3.6751" x2=".4114" y2="-3.6751" gradientTransform="matrix(0 -508.41384 -520.0658 0 -1672.557945 230.851895)"><stop offset="0" stop-color="#ccf4fa"/><stop offset=".00243902" stop-color="#ccf4fa"/><stop offset=".0959485" stop-color="#c2f0f7"/><stop offset=".2526" stop-color="#a8e6ef"/><stop offset=".4" stop-color="#8adae6"/><stop offset=".4737" stop-color="#87d3e3"/><stop offset=".5845" stop-color="#7fbeda"/><stop offset=".7186" stop-color="#719ccb"/><stop offset=".8695" stop-color="#5e6eb7"/><stop offset="1" stop-color="#4c40a3"/></linearGradient><linearGradient id="linear15" gradientUnits="userSpaceOnUse" x1="-.6081" y1="-3.6395" x2=".4114" y2="-3.6395" gradientTransform="matrix(0 -508.41384 -520.0658 0 -1672.557945 230.851895)"><stop offset="0" stop-color="#ccf4fa"/><stop offset=".00243902" stop-color="#ccf4fa"/><stop offset=".0959485" stop-color="#c2f0f7"/><stop offset=".2526" stop-color="#a8e6ef"/><stop offset=".4" stop-color="#8adae6"/><stop offset=".4737" stop-color="#87d3e3"/><stop offset=".5845" stop-color="#7fbeda"/><stop offset=".7186" stop-color="#719ccb"/><stop offset=".8695" stop-color="#5e6eb7"/><stop offset="1" stop-color="#4c40a3"/></linearGradient><linearGradient id="linear16" gradientUnits="userSpaceOnUse" x1="-.6081" y1="-4.0986" x2=".4114" y2="-4.0986" gradientTransform="matrix(0 -508.41384 -520.0658 0 -1672.557945 230.851895)"><stop offset="0" stop-color="#ccf4fa"/><stop offset=".00243902" stop-color="#ccf4fa"/><stop offset=".0959485" stop-color="#c2f0f7"/><stop offset=".2526" stop-color="#a8e6ef"/><stop offset=".4" stop-color="#8adae6"/><stop offset=".4737" stop-color="#87d3e3"/><stop offset=".5845" stop-color="#7fbeda"/><stop offset=".7186" stop-color="#719ccb"/><stop offset=".8695" stop-color="#5e6eb7"/><stop offset="1" stop-color="#4c40a3"/></linearGradient><linearGradient id="linear17" gradientUnits="userSpaceOnUse" x1="-.6081" y1="-4.2819" x2=".4114" y2="-4.2819" gradientTransform="matrix(0 -508.41384 -520.0658 0 -1672.557945 230.851895)"><stop offset="0" stop-color="#ccf4fa"/><stop offset=".00243902" stop-color="#ccf4fa"/><stop offset=".0959485" stop-color="#c2f0f7"/><stop offset=".2526" stop-color="#a8e6ef"/><stop offset=".4" stop-color="#8adae6"/><stop offset=".4737" stop-color="#87d3e3"/><stop offset=".5845" stop-color="#7fbeda"/><stop offset=".7186" stop-color="#719ccb"/><stop offset=".8695" stop-color="#5e6eb7"/><stop offset="1" stop-color="#4c40a3"/></linearGradient><linearGradient id="linear18" gradientUnits="userSpaceOnUse" x1="-.6081" y1="-3.6461" x2=".4114" y2="-3.6461" gradientTransform="matrix(0 -508.41384 -520.0658 0 -1672.557945 230.851895)"><stop offset="0" stop-color="#ccf4fa"/><stop offset=".00243902" stop-color="#ccf4fa"/><stop offset=".0959485" stop-color="#c2f0f7"/><stop offset=".2526" stop-color="#a8e6ef"/><stop offset=".4" stop-color="#8adae6"/><stop offset=".4737" stop-color="#87d3e3"/><stop offset=".5845" stop-color="#7fbeda"/><stop offset=".7186" stop-color="#719ccb"/><stop offset=".8695" stop-color="#5e6eb7"/><stop offset="1" stop-color="#4c40a3"/></linearGradient><linearGradient id="linear19" gradientUnits="userSpaceOnUse" x1="-.6081" y1="-4.2819" x2=".4114" y2="-4.2819" gradientTransform="matrix(0 -508.41384 -520.0658 0 -1672.557945 230.851895)"><stop offset="0" stop-color="#ccf4fa"/><stop offset=".00243902" stop-color="#ccf4fa"/><stop offset=".0959485" stop-color="#c2f0f7"/><stop offset=".2526" stop-color="#a8e6ef"/><stop offset=".4" stop-color="#8adae6"/><stop offset=".4737" stop-color="#87d3e3"/><stop offset=".5845" stop-color="#7fbeda"/><stop offset=".7186" stop-color="#719ccb"/><stop offset=".8695" stop-color="#5e6eb7"/><stop offset="1" stop-color="#4c40a3"/></linearGradient><linearGradient id="linear20" gradientUnits="userSpaceOnUse" x1="2.3389" y1="13.7999" x2="3.3584" y2="13.7999" gradientTransform="matrix(0 132.9813 136.029 0 -1672.557945 327.355983)"><stop offset="0" stop-color="#9ac8d7"/><stop offset=".00731707" stop-color="#9ac8d7"/><stop offset="1" stop-color="#9cb0d7"/></linearGradient><linearGradient id="linear21" gradientUnits="userSpaceOnUse" x1="2.3389" y1="13.7362" x2="3.3584" y2="13.7362" gradientTransform="matrix(0 132.9813 136.029 0 -1672.557945 327.355983)"><stop offset="0" stop-color="#9ac8d7"/><stop offset=".00731707" stop-color="#9ac8d7"/><stop offset="1" stop-color="#9cb0d7"/></linearGradient><linearGradient id="linear22" gradientUnits="userSpaceOnUse" x1="2.3389" y1="16.2588" x2="3.3584" y2="16.2588" gradientTransform="matrix(0 132.9813 136.029 0 -1672.557945 327.355983)"><stop offset="0" stop-color="#9ac8d7"/><stop offset=".00731707" stop-color="#9ac8d7"/><stop offset="1" stop-color="#9cb0d7"/></linearGradient><linearGradient id="linear23" gradientUnits="userSpaceOnUse" x1="2.3389" y1="16.8686" x2="3.3584" y2="16.8686" gradientTransform="matrix(0 132.9813 136.029 0 -1672.557945 327.355983)"><stop offset="0" stop-color="#9ac8d7"/><stop offset=".00731707" stop-color="#9ac8d7"/><stop offset="1" stop-color="#9cb0d7"/></linearGradient><linearGradient id="linear24" gradientUnits="userSpaceOnUse" x1="2.3389" y1="14.6176" x2="3.3584" y2="14.6176" gradientTransform="matrix(0 132.9813 136.029 0 -1672.557945 327.355983)"><stop offset="0" stop-color="#9ac8d7"/><stop offset=".00731707" stop-color="#9ac8d7"/><stop offset="1" stop-color="#9cb0d7"/></linearGradient><linearGradient id="linear25" gradientUnits="userSpaceOnUse" x1="2.3389" y1="14.3467" x2="3.3584" y2="14.3467" gradientTransform="matrix(0 132.9813 136.029 0 -1672.557945 327.355983)"><stop offset="0" stop-color="#9ac8d7"/><stop offset=".00731707" stop-color="#9ac8d7"/><stop offset="1" stop-color="#9cb0d7"/></linearGradient><linearGradient id="linear26" gradientUnits="userSpaceOnUse" x1="2.3389" y1="13.1148" x2="3.3584" y2="13.1148" gradientTransform="matrix(0 132.9813 136.029 0 -1672.557945 327.355983)"><stop offset="0" stop-color="#9ac8d7"/><stop offset=".00731707" stop-color="#9ac8d7"/><stop offset="1" stop-color="#9cb0d7"/></linearGradient><linearGradient id="linear27" gradientUnits="userSpaceOnUse" x1="2.3389" y1="14.838" x2="3.3584" y2="14.838" gradientTransform="matrix(0 132.9813 136.029 0 -1672.557945 327.355983)"><stop offset="0" stop-color="#9ac8d7"/><stop offset=".00731707" stop-color="#9ac8d7"/><stop offset="1" stop-color="#9cb0d7"/></linearGradient><linearGradient id="linear28" gradientUnits="userSpaceOnUse" x1="1403.1154" y1="1377.3951" x2="1403.1154" y2="1197.0884" gradientTransform="matrix(.88235 0 0 .86258 -953.488386 -265.238979)"><stop offset=".00731707" stop-color="#3b4072"/><stop offset="1" stop-color="#252851"/></linearGradient><linearGradient id="linear29" gradientUnits="userSpaceOnUse" x1="1136.6071" y1="1041.9274" x2="1136.6071" y2="1159.5428" gradientTransform="matrix(.88235 0 0 .86258 -953.488386 -265.238979)"><stop offset=".00731707" stop-color="#3b4072"/><stop offset="1" stop-color="#252851"/></linearGradient><linearGradient id="linear30" gradientUnits="userSpaceOnUse" x1="1442.4255" y1="933.5207" x2="1442.4255" y2="332.6296" gradientTransform="matrix(.88235 0 0 .86258 -953.488386 -265.238979)"><stop offset=".00243902" stop-color="#a4e5f4"/><stop offset=".4" stop-color="#60acc4"/><stop offset="1" stop-color="#352968"/></linearGradient><linearGradient id="linear31" gradientUnits="userSpaceOnUse" x1="1442.4255" y1="1665.9763" x2="1442.4255" y2="1233.1243" gradientTransform="matrix(.88235 0 0 .86258 -953.488386 -265.238979)"><stop offset=".00731707" stop-color="#373766"/><stop offset="1" stop-color="#19193d"/></linearGradient><linearGradient id="linear32" gradientUnits="userSpaceOnUse" x1="1699.729" y1="959.9031" x2="1699.729" y2="1157.7701" gradientTransform="matrix(.88235 0 0 .86258 -953.488386 -265.238979)"><stop offset=".00731707" stop-color="#373766"/><stop offset="1" stop-color="#19193d"/></linearGradient><linearGradient id="linear33" gradientUnits="userSpaceOnUse" x1="1533.5096" y1="982.5406" x2="1533.5096" y2="1177.0635" gradientTransform="matrix(.88235 0 0 .86258 -953.488386 -265.238979)"><stop offset=".00731707" stop-color="#373766"/><stop offset="1" stop-color="#19193d"/></linearGradient></defs><g id="surface1"><path d="M629.894531 1169.152344H8.542969c-14.914063 0-27-11.816406-27-26.394532V21.65625c0-14.578125 12.085937-26.394531 27-26.394531h621.351562c14.910157 0 27 11.816406 27 26.394531v1121.015625c.085938 14.664063-12 26.480469-27 26.480469zm0 0" fill="url(#linear0)"/><path d="M223.660156 405.246094s28.320313-32.949219 43.144532-32.949219c14.824218 0 58.941406 85.050781 76.765624 79.617187 17.824219-5.433593 23.734376-31.828124 47.207032-4.226562 23.382812 27.515625 117.527344 133.699219 117.527344 133.699219l-122.027344 29.671875zm0 0" fill="url(#linear1)"/><path d="M3.777344 286.988281s47.117187-46.496093 69.792968-46.496093c21.441407 0 86.648438 120.675781 86.648438 120.675781l-101.207031 64.78125zm0 0" fill="url(#linear2)"/><path d="M656.980469 633.140625s-64.320313-123.175781-94.5-123.175781c-7.675781 0-102.351563 83.84375-161.820313 39.335937-48-35.886719-159.355468-166.910156-200.648437-216.25-8.558594-10.179687-24.089844-11.992187-34.941407-3.96875-21.175781 15.613281-53.382812 36.660157-61.589843 26.566407C90.863281 340.207031-18.546875 189.945312-18.546875 189.945312v443.195313zm0 0" fill="url(#linear3)"/><path d="M-18.457031 378.9375s25.675781-41.316406 47.558593-29.929688c11.820313 6.125 82.761719 101.09375 95.378907 104.628907 12.621093 3.539062 35.121093-36.054688 77.382812 18.460937 42.265625 54.515625 154.765625 160.957032 154.765625 160.957032h-375V378.9375zm0 0" fill="url(#linear4)"/><path d="M539.363281 350.90625c-43.941406 0-79.5-34.761719-79.5-77.71875 0-14.234375 3.882813-27.605469 10.765625-38.992188-28.851562 11.648438-49.234375 39.421876-49.234375 71.855469 0 42.957031 35.558594 77.71875 79.5 77.71875 29.382813 0 54.96875-15.527343 68.734375-38.644531-9.265625 3.710938-19.5 5.78125-30.265625 5.78125zm0 0" fill="#e0f9fc"/><path d="M-18.460938 633.140625h675.441407v509.617187H-18.460938zm0 0" fill="url(#linear5)"/><path d="M29.011719 27.175781c-3 0-5.382813 2.332031-5.382813 5.261719 0 2.933594 2.382813 5.261719 5.382813 5.261719 3 0 5.382812-2.328125 5.382812-5.261719 0-2.84375-2.382812-5.261719-5.382812-5.261719zm0 0" fill="url(#linear6)"/><path d="M342.070312 246.1875c-3 0-5.382812 2.328125-5.382812 5.261719 0 2.933593 2.382812 5.261719 5.382812 5.261719 3 0 5.382813-2.328126 5.382813-5.261719 0-2.847657-2.472656-5.261719-5.382813-5.261719" fill="url(#linear7)"/><path d="M130.042969 65.042969c-3 0-5.382813 2.332031-5.382813 5.261719 0 2.933593 2.382813 5.261718 5.382813 5.261718 3 0 5.378906-2.328125 5.378906-5.261718 0-2.929688-2.378906-5.261719-5.378906-5.261719" fill="url(#linear8)"/><path d="M404.980469 32.523438c-3 0-5.378907 2.332031-5.378907 5.261718 0 2.933594 2.378907 5.261719 5.378907 5.261719s5.382812-2.328125 5.382812-5.261719c0-2.929687-2.382812-5.261718-5.382812-5.261718" fill="url(#linear9)"/><path d="M559.746094 112.660156c-3 0-5.382813 2.328125-5.382813 5.261719 0 2.933594 2.382813 5.261719 5.382813 5.261719 3 0 5.382812-2.328125 5.382812-5.261719 0-2.933594-2.382812-5.261719-5.382812-5.261719" fill="url(#linear10)"/><path d="M591.070312 52.96875c-1.941406 0-3.441406 1.550781-3.441406 3.363281 0 1.898438 1.589844 3.363281 3.441406 3.363281 1.941407 0 3.441407-1.550781 3.441407-3.363281 0-1.8125-1.589844-3.363281-3.441407-3.363281" fill="url(#linear11)"/><path d="M52.835938 114.558594c-1.941407 0-3.441407 1.550781-3.441407 3.363281 0 1.898437 1.585938 3.363281 3.441407 3.363281 1.941406 0 3.441406-1.554687 3.441406-3.363281 0-1.898437-1.5-3.363281-3.441406-3.363281" fill="url(#linear12)"/><path d="M160.21875 223.242188c-1.941406 0-3.441406 1.554687-3.441406 3.363281 0 1.898437 1.585937 3.363281 3.441406 3.363281 1.941406 0 3.441406-1.550781 3.441406-3.363281 0-1.808594-1.5-3.363281-3.441406-3.363281" fill="url(#linear13)"/><path d="M238.746094 295.527344c-1.941406 0-3.441406 1.550781-3.441406 3.363281 0 1.898437 1.589843 3.363281 3.441406 3.363281 1.941406 0 3.441406-1.550781 3.441406-3.363281 0-1.8125-1.585938-3.363281-3.441406-3.363281" fill="url(#linear14)"/><path d="M220.21875 25.710938c-1.941406 0-3.441406 1.550781-3.441406 3.363281 0 1.898437 1.585937 3.363281 3.441406 3.363281 1.941406 0 3.441406-1.550781 3.441406-3.363281 0-1.8125-1.589844-3.363281-3.441406-3.363281" fill="url(#linear15)"/><path d="M458.980469 23.8125c-1.9375 0-3.4375 1.554688-3.4375 3.363281 0 1.898438 1.585937 3.367188 3.4375 3.367188 1.941406 0 3.441406-1.554688 3.441406-3.367188 0-1.808593-1.5-3.363281-3.441406-3.363281" fill="url(#linear16)"/><path d="M554.363281 261.28125c-1.941406 0-3.441406 1.554688-3.441406 3.363281 0 1.898438 1.589844 3.367188 3.441406 3.367188 1.941407 0 3.441407-1.554688 3.441407-3.367188 0-1.894531-1.585938-3.363281-3.441407-3.363281" fill="url(#linear17)"/><path d="M223.660156 195.640625c-1.941406 0-3.441406 1.550781-3.441406 3.363281 0 1.898438 1.585938 3.363282 3.441406 3.363282 1.941406 0 3.441406-1.550782 3.441406-3.363282 0-1.898437-1.589843-3.363281-3.441406-3.363281" fill="url(#linear18)"/><path d="M554.363281 226.605469c-3 0-5.382812 2.328125-5.382812 5.261719 0 2.933593 2.382812 5.261718 5.382812 5.261718 3 0 5.382813-2.328125 5.382813-5.261718 0-2.84375-2.46875-5.261719-5.382813-5.261719" fill="url(#linear19)"/><path d="M204.601562 664.023438c-71.648437 0-135.53125 1.8125-176.824218 4.65625 41.292968 2.847656 105.175781 4.660156 176.824218 4.660156 71.644532 0 135.527344-1.8125 176.820313-4.660156-41.292969-2.757813-105.085937-4.65625-176.820313-4.65625" fill="url(#linear20)"/><path d="M195.953125 700.597656c-26.824219 0-50.734375 1.808594-66.265625 4.65625 15.441406 2.847656 39.355469 4.660156 66.265625 4.660156 26.824219 0 50.734375-1.8125 66.265625-4.660156-15.53125-2.761718-39.441406-4.65625-66.265625-4.65625" fill="url(#linear21)"/><path d="M539.101562 647.546875c-36.882812 0-69.796874 1.8125-91.058593 4.660156 21.261719 2.84375 54.175781 4.65625 91.058593 4.65625 36.878907 0 69.792969-1.8125 91.058594-4.65625-21.265625-2.847656-54.089844-4.660156-91.058594-4.660156" fill="url(#linear22)"/><path d="M622.042969 666.351562c-9.707031 0-18.441407.949219-24 2.328126 5.644531 1.382812 14.292969 2.328124 24 2.328124 9.703125 0 18.4375-.945312 24-2.328124-5.5625-1.378907-14.296875-2.328126-24-2.328126" fill="url(#linear23)"/><path d="M315.863281 687.226562c-12.175781 0-22.941406.949219-30 2.328126 6.972657 1.378906 17.824219 2.328124 30 2.328124 12.179688 0 22.941407-.949218 30-2.328124-7.058593-1.378907-17.820312-2.328126-30-2.328126" fill="url(#linear24)"/><path d="M278.980469 737.257812c-26.558594 0-50.117188.945313-65.378907 2.328126 15.261719 1.378906 38.910157 2.328124 65.378907 2.328124 26.5625 0 50.121093-.949218 65.382812-2.328124-15.261719-1.46875-38.820312-2.328126-65.382812-2.328126" fill="url(#linear25)"/><path d="M111.421875 725.609375c-26.558594 0-50.117187.949219-65.378906 2.332031 15.261719 1.378906 38.910156 2.328125 65.378906 2.328125 26.558594 0 50.121094-.949219 65.382813-2.328125-15.261719-1.46875-38.824219-2.332031-65.382813-2.332031" fill="url(#linear26)"/><path d="M345.863281 717.675781c-26.558593 0-50.117187.949219-65.382812 2.328125 15.265625 1.378906 38.914062 2.328125 65.382812 2.328125 26.558594 0 50.117188-.949219 65.382813-2.328125-15.265625-1.378906-38.910156-2.328125-65.382813-2.328125" fill="url(#linear27)"/><path d="M-18.457031 729.40625s168.96875-.863281 419.203125 178.125c245.914062 175.878906 178.414062 261.621094 178.414062 261.621094l-597.617187-26.394532zm0 0" fill="url(#linear28)"/><path d="M11.542969 731.734375L.511719 748.902344h10.851562c-1.234375 2.414062-2.644531 5-4.234375 7.761718h84.617188c-1.585938-2.761718-3-5.347656-4.234375-7.761718h10.851562l-11.027343-17.167969 14.027343.605469c-4.410156-5.089844-10.410156-12.9375-10.410156-12.9375h6.707031c-8.824218-6.039063-19.058594-27.257813-25.5-42.269532l7.761719 2.675782-9.878906-18.460938h12.085937c-15.175781-11.558594-32.648437-63.140625-32.648437-63.140625s-17.378907 51.582031-32.644531 63.140625h12.085937l-9.878906 18.460938 7.761719-2.675782c-6.441407 15.011719-16.675782 36.230469-25.5 42.269532h6.707031S2.101562 727.25-2.398438 732.339844zm0 0" fill="url(#linear29)"/><path d="M-18.457031 1142.757812c0 14.578126 12.085937 26.394532 27 26.394532h621.351562c14.910157 0 27-11.816406 27-26.394532V709.480469c-313.941406 26.828125-675.441406 191.40625-675.441406 191.40625v241.871093zm0 0" fill="url(#linear30)"/><path d="M-18.457031 1142.757812c0 14.578126 12.085937 26.394532 27 26.394532h621.351562c14.910157 0 27-11.816406 27-26.394532V709.480469c-313.941406 26.828125-675.441406 191.40625-675.441406 191.40625v241.871093zm0 0" fill="url(#linear31)"/><path d="M482.542969 714.742188l-18.621094 28.898437H482.1875c-2.117188 4.054687-4.5 8.453125-7.144531 13.109375h142.320312c-2.644531-4.65625-5.027343-8.96875-7.144531-13.109375h18.261719l-18.617188-28.898437 23.558594 1.035156c-7.5-8.539063-17.46875-21.738282-17.46875-21.738282h11.207031c-14.824218-10.175781-32.117187-45.886718-42.972656-71.160156l12.972656 4.484375-16.589844-30.96875h20.382813c-25.589844-19.40625-54.882813-106.183593-54.882813-106.183593s-29.292968 86.777343-54.882812 106.183593h20.382812l-16.589843 30.96875 12.972656-4.484375c-10.851563 25.273438-28.148437 60.898438-42.972656 71.160156H476.1875s-9.96875 13.199219-17.46875 21.738282zm0 0" fill="url(#linear32)"/><path d="M348.421875 757.441406l-15 23.203125h14.648437c-1.675781 3.277344-3.617187 6.8125-5.734374 10.523438h114.441406c-2.117188-3.710938-4.058594-7.246094-5.734375-10.523438H465.6875l-15-23.203125 18.972656.777344c-6-6.816406-14.03125-17.425781-14.03125-17.425781h9c-11.910156-8.195313-25.765625-36.832031-34.5-57.191407l10.414063 3.625-13.324219-24.929687h16.410156c-20.558594-15.613281-44.117187-85.308594-44.117187-85.308594s-23.558594 69.78125-44.117188 85.308594h16.410157l-13.324219 24.929687 10.414062-3.625c-8.734375 20.359376-22.589843 48.996094-34.5 57.191407h9s-8.03125 10.609375-14.03125 17.425781zm0 0" fill="url(#linear33)"/></g></svg>